# xmcd
#
# Track frame offsets:
#	150
#	22098
#	39033
#	57244
#	74414
#	91287
#	105255
#	120948
#	135117
#	153722
#	173617
#	187885
#
# Disc length: 2764 seconds
#
# Revision: 2
# Processed by: cddbd v1.5.2PL0 Copyright (c) Steve Scherf et al.
# Submitted via: audiograbber 1.83.01
#
DISCID=880aca0c
DTITLE=Little Big Town - The Reason Why
DYEAR=2010
DGENRE=Country
TTITLE0=The Reason Why
TTITLE1=Runaway Train
TTITLE2=Kiss Goodbye
TTITLE3=Shut Up Train
TTITLE4=Why Oh Why
TTITLE5=Little White Church
TTITLE6=You Can't Have Everything
TTITLE7=All The Way Down
TTITLE8=All Over Again
TTITLE9=Rain On A Tin Roof
TTITLE10=Life Rolls On
TTITLE11=Lean Into It
EXTD=YEAR: 2010
EXTT0=
EXTT1=
EXTT2=
EXTT3=
EXTT4=
EXTT5=
EXTT6=
EXTT7=
EXTT8=
EXTT9=
EXTT10=
EXTT11=
PLAYORDER=
